<svg width="18" height="20" viewBox="0 0 18 20" fill="none" xmlns="http://www.w3.org/2000/svg">
<path d="M0.800003 4.50206H2.34839M16.8 4.50206H15.2516M2.34839 4.50206V16.7998C2.34839 17.9044 3.24382 18.7998 4.34839 18.7998H13.2516C14.3562 18.7998 15.2516 17.9044 15.2516 16.7998V4.50206M2.34839 4.50206H5.1871M15.2516 4.50206H12.4129M6.99355 8.84245V14.4594M10.6065 8.84245V14.4594M5.1871 4.50206V3.10383C5.1871 2.84692 5.22818 2.58681 5.36181 2.36738C6.63465 0.277325 10.9654 0.277231 12.2382 2.36739C12.3718 2.58681 12.4129 2.84691 12.4129 3.10382V4.50206M5.1871 4.50206H12.4129" stroke="currentColor" stroke-width="1.6" stroke-linecap="round"/>
</svg>
