<svg width="18" height="18" viewBox="0 0 18 18" fill="none" xmlns="http://www.w3.org/2000/svg">
<path d="M2.30729 8.7998C1.37975 8.7998 0.800049 8.11409 0.800049 7.65695V4.91409M2.30729 8.7998C3.23482 8.7998 3.00294 7.77123 3.93048 7.77123C4.85801 7.77123 4.39425 9.02838 5.55367 9.02838C6.4812 9.02838 6.36526 7.77123 7.17686 7.77123C8.10439 7.77123 7.64062 9.02838 8.80005 9.02838C9.95947 9.02838 9.4957 7.77123 10.4232 7.77123C11.3508 7.77123 10.887 9.02838 12.0464 9.02838C13.2058 9.02838 12.7421 7.77123 13.6696 7.77123C14.5972 7.77123 14.3653 8.7998 15.2928 8.7998M2.30729 8.7998V15.1998C2.30729 16.0835 3.03401 16.7998 3.93048 16.7998H6.36527M0.800049 4.91409H16.8M0.800049 4.91409L4.85801 0.799805H12.7421L16.8 4.91409M16.8 4.91409V7.42838C16.8 8.11409 16.2203 8.7998 15.2928 8.7998M15.2928 8.7998V15.1998C15.2928 16.0835 14.5661 16.7998 13.6696 16.7998H11.2348M11.2348 16.7998V13.2569C11.2348 12.6861 10.8877 12.0013 9.73126 11.9998L7.87252 11.9998C6.7131 11.9998 6.36527 12.6855 6.36527 13.2569V16.7998M11.2348 16.7998H6.36527" stroke="currentColor" stroke-width="1.6"/>
</svg>
