<svg width="18" height="18" viewBox="0 0 18 18" fill="none" xmlns="http://www.w3.org/2000/svg">
<path d="M6.94142 1.5998C7.38324 1.5998 7.74142 1.24163 7.74142 0.799805C7.74142 0.357977 7.38324 -0.000195324 6.94142 -0.000195324V0.799805V1.5998ZM6.94142 17.5998C7.38324 17.5998 7.74142 17.2416 7.74142 16.7998C7.74142 16.358 7.38324 15.9998 6.94142 15.9998V16.7998V17.5998ZM6.29495 8.15667C5.85312 8.15667 5.49495 8.51484 5.49495 8.95667C5.49495 9.3985 5.85312 9.75667 6.29495 9.75667V8.95667V8.15667ZM17.3657 9.52235C17.6781 9.20993 17.6781 8.7034 17.3657 8.39098L12.2745 3.29981C11.9621 2.98739 11.4556 2.98739 11.1431 3.29981C10.8307 3.61223 10.8307 4.11876 11.1431 4.43118L15.6686 8.95667L11.1431 13.4822C10.8307 13.7946 10.8307 14.3011 11.1431 14.6135C11.4556 14.9259 11.9621 14.9259 12.2745 14.6135L17.3657 9.52235ZM3.38586 0.799805V1.5998H6.94142V0.799805V-0.000195324H3.38586V0.799805ZM6.94142 16.7998V15.9998H3.38586V16.7998V17.5998H6.94142V16.7998ZM0.800003 14.29H1.6V3.30961H0.800003H3.03984e-06V14.29H0.800003ZM3.38586 16.7998V15.9998C2.37688 15.9998 1.6 15.212 1.6 14.29H0.800003H3.03984e-06C3.03984e-06 16.1403 1.53858 17.5998 3.38586 17.5998V16.7998ZM3.38586 0.799805V-0.000195324C1.53858 -0.000195324 3.03984e-06 1.45931 3.03984e-06 3.30961H0.800003H1.6C1.6 2.38765 2.37688 1.5998 3.38586 1.5998V0.799805ZM6.29495 8.95667V9.75667H16.8V8.95667V8.15667H6.29495V8.95667Z" fill="white"/>
</svg>
